<svg width="34" height="34" viewBox="0 0 34 34" fill="none" xmlns="http://www.w3.org/2000/svg">
<path d="M34 17C34 7.61116 26.3888 0 17 0C7.61116 0 0 7.61116 0 17C0 26.3888 7.61116 34 17 34C26.3888 34 34 26.3888 34 17Z" fill="#F2A623"/>
<g clip-path="url(#clip0_1834_144)">
<path d="M9.5 24.5L20 14" stroke="white" stroke-width="2" stroke-linecap="round" stroke-linejoin="round"/>
<path d="M10.6026 17.3975L11.7501 16.25L12.8976 17.3975C13.3876 17.8895 13.6628 18.5556 13.6628 19.25C13.6628 19.9444 13.3876 20.6105 12.8976 21.1025L11.7501 22.25L10.6026 21.1025C10.1125 20.6105 9.8374 19.9444 9.8374 19.25C9.8374 18.5556 10.1125 17.8895 10.6026 17.3975Z" stroke="white" stroke-width="1.8" stroke-linecap="round" stroke-linejoin="round"/>
<path d="M13.6026 14.3975L14.7501 13.25L15.8976 14.3975C16.3876 14.8895 16.6628 15.5556 16.6628 16.25C16.6628 16.9444 16.3876 17.6105 15.8976 18.1025L14.7501 19.25L13.6026 18.1025C13.1125 17.6105 12.8374 16.9444 12.8374 16.25C12.8374 15.5556 13.1125 14.8895 13.6026 14.3975Z" stroke="white" stroke-width="1.8" stroke-linecap="round" stroke-linejoin="round"/>
<path d="M16.6026 11.3975L17.7501 10.25L18.8976 11.3975C19.3876 11.8895 19.6628 12.5556 19.6628 13.25C19.6628 13.9444 19.3876 14.6105 18.8976 15.1025L17.7501 16.25L16.6026 15.1025C16.1125 14.6105 15.8374 13.9444 15.8374 13.25C15.8374 12.5556 16.1125 11.8895 16.6026 11.3975Z" stroke="white" stroke-width="1.8" stroke-linecap="round" stroke-linejoin="round"/>
<path d="M23 9.5H24.5V11C24.5 11.7956 24.1839 12.5587 23.6213 13.1213C23.0587 13.6839 22.2956 14 21.5 14H20V12.5C20 11.7044 20.3161 10.9413 20.8787 10.3787C21.4413 9.81607 22.2044 9.5 23 9.5Z" stroke="white" stroke-width="1.8" stroke-linecap="round" stroke-linejoin="round"/>
<path d="M16.6025 21.1021L17.75 22.2496L16.6025 23.3971C16.1105 23.8872 15.4444 24.1623 14.75 24.1623C14.0556 24.1623 13.3895 23.8872 12.8975 23.3971L11.75 22.2496L12.8975 21.1021C13.3895 20.6121 14.0556 20.3369 14.75 20.3369C15.4444 20.3369 16.1105 20.6121 16.6025 21.1021Z" stroke="white" stroke-width="1.8" stroke-linecap="round" stroke-linejoin="round"/>
<path d="M19.6025 18.1021L20.75 19.2496L19.6025 20.3971C19.1105 20.8872 18.4444 21.1623 17.75 21.1623C17.0556 21.1623 16.3895 20.8872 15.8975 20.3971L14.75 19.2496L15.8975 18.1021C16.3895 17.6121 17.0556 17.3369 17.75 17.3369C18.4444 17.3369 19.1105 17.6121 19.6025 18.1021Z" stroke="white" stroke-width="2" stroke-linecap="round" stroke-linejoin="round"/>
<path d="M22.6025 15.1021L23.75 16.2496L22.6025 17.3971C22.1105 17.8872 21.4444 18.1623 20.75 18.1623C20.0556 18.1623 19.3895 17.8872 18.8975 17.3971L17.75 16.2496L18.8975 15.1021C19.3895 14.6121 20.0556 14.3369 20.75 14.3369C21.4444 14.3369 22.1105 14.6121 22.6025 15.1021Z" stroke="white" stroke-width="1.8" stroke-linecap="round" stroke-linejoin="round"/>
</g>
<defs>
<clipPath id="clip0_1834_144">
<rect width="18" height="18" fill="white" transform="translate(8 8)"/>
</clipPath>
</defs>
</svg>
