<svg width="34" height="34" viewBox="0 0 34 34" fill="none" xmlns="http://www.w3.org/2000/svg">
<path d="M34 17C34 7.61116 26.3888 0 17 0C7.61116 0 0 7.61116 0 17C0 26.3888 7.61116 34 17 34C26.3888 34 34 26.3888 34 17Z" fill="#6BBF6D"/>
<path d="M15.7084 22.833C14.3182 22.8372 12.9773 22.3188 11.9515 21.3806C10.9257 20.4424 10.29 19.153 10.1704 17.768C10.0509 16.383 10.4562 15.0037 11.306 13.9036C12.1558 12.8035 13.3881 12.0629 14.7584 11.8288C19.2709 10.958 20.4584 10.5463 22.0417 8.58301C22.8334 10.1663 23.625 11.8922 23.625 14.9163C23.625 19.2705 19.8409 22.833 15.7084 22.833Z" stroke="white" stroke-width="2" stroke-linecap="round" stroke-linejoin="round"/>
<path d="M8.58325 23.625C8.58325 21.25 10.0478 19.3817 12.6049 18.875C14.5208 18.495 16.4999 17.2917 17.2916 16.5" stroke="white" stroke-width="2" stroke-linecap="round" stroke-linejoin="round"/>
</svg>
