<svg width="34" height="34" viewBox="0 0 34 34" fill="none" xmlns="http://www.w3.org/2000/svg">
<path d="M34 17C34 7.61116 26.3888 0 17 0C7.61116 0 0 7.61116 0 17C0 26.3888 7.61116 34 17 34C26.3888 34 34 26.3888 34 17Z" fill="#2E9E6B"/>
<g clip-path="url(#clip0_1834_130)">
<path d="M13 24.5C13.4142 24.5 13.75 24.1642 13.75 23.75C13.75 23.3358 13.4142 23 13 23C12.5858 23 12.25 23.3358 12.25 23.75C12.25 24.1642 12.5858 24.5 13 24.5Z" stroke="white" stroke-width="2" stroke-linecap="round" stroke-linejoin="round"/>
<path d="M21.25 24.5C21.6642 24.5 22 24.1642 22 23.75C22 23.3358 21.6642 23 21.25 23C20.8358 23 20.5 23.3358 20.5 23.75C20.5 24.1642 20.8358 24.5 21.25 24.5Z" stroke="white" stroke-width="2" stroke-linecap="round" stroke-linejoin="round"/>
<path d="M8.5376 9.53711H10.0376L12.0326 18.8521C12.1058 19.1933 12.2956 19.4982 12.5694 19.7145C12.8432 19.9308 13.1838 20.0449 13.5326 20.0371H20.8676C21.209 20.0366 21.54 19.9196 21.8059 19.7055C22.0718 19.4914 22.2567 19.193 22.3301 18.8596L23.5676 13.2871H10.8401" stroke="white" stroke-width="2" stroke-linecap="round" stroke-linejoin="round"/>
</g>
<defs>
<clipPath id="clip0_1834_130">
<rect width="18" height="18" fill="white" transform="translate(7 8)"/>
</clipPath>
</defs>
</svg>
