<svg width="34" height="34" viewBox="0 0 34 34" fill="none" xmlns="http://www.w3.org/2000/svg">
<path d="M34 17C34 7.61116 26.3888 0 17 0C7.61116 0 0 7.61116 0 17C0 26.3888 7.61116 34 17 34C26.3888 34 34 26.3888 34 17Z" fill="#6C91F6"/>
<path d="M22.9999 11H10.9999C10.6317 11 10.3333 11.2985 10.3333 11.6667V13.6667C10.3333 14.0349 10.6317 14.3333 10.9999 14.3333H22.9999C23.3681 14.3333 23.6666 14.0349 23.6666 13.6667V11.6667C23.6666 11.2985 23.3681 11 22.9999 11Z" stroke="white" stroke-width="2" stroke-linecap="round" stroke-linejoin="round"/>
<path d="M11.6667 14.333V21.6663C11.6667 22.02 11.8072 22.3591 12.0573 22.6091C12.3073 22.8592 12.6465 22.9997 13.0001 22.9997H21.0001C21.3537 22.9997 21.6928 22.8592 21.9429 22.6091C22.1929 22.3591 22.3334 22.02 22.3334 21.6663V14.333" stroke="white" stroke-width="2" stroke-linecap="round" stroke-linejoin="round"/>
<path d="M15.6667 18H18.3334" stroke="white" stroke-width="2" stroke-linecap="round" stroke-linejoin="round"/>
</svg>
