<svg width="34" height="34" viewBox="0 0 34 34" fill="none" xmlns="http://www.w3.org/2000/svg">
<path d="M34 17C34 7.61116 26.3888 0 17 0C7.61116 0 0 7.61116 0 17C0 26.3888 7.61116 34 17 34C26.3888 34 34 26.3888 34 17Z" fill="#E8593C"/>
<path d="M23.1784 19.0113C24.5001 17.6896 25.3334 16.5829 25.3334 14.9163C25.3334 13.9889 25.0521 13.0834 24.5266 12.3193C24.0012 11.5552 23.2563 10.9685 22.3904 10.6366C21.5245 10.3047 20.5783 10.2433 19.6767 10.4605C18.7752 10.6776 17.9607 11.1632 17.3409 11.8529M23.1784 19.0113C23.0141 19.1756 22.8189 19.306 22.6042 19.395C22.3894 19.484 22.1592 19.5298 21.9267 19.5298C21.6943 19.5298 21.4641 19.484 21.2493 19.395C21.0346 19.306 20.8394 19.1756 20.6751 19.0113C20.853 19.1722 20.9964 19.3676 21.0965 19.5856C21.1966 19.8037 21.2513 20.0398 21.2574 20.2797C21.2634 20.5195 21.2206 20.7581 21.1316 20.9809C21.0426 21.2037 20.9092 21.406 20.7395 21.5757C20.5699 21.7453 20.3675 21.8787 20.1447 21.9678C19.9219 22.0568 19.6833 22.0996 19.4435 22.0935C19.2036 22.0875 18.9675 22.0328 18.7495 21.9327C18.5314 21.8326 18.336 21.6892 18.1751 21.5113C18.3396 21.6751 18.4702 21.8698 18.5594 22.0842C18.6486 22.2985 18.6947 22.5284 18.695 22.7606C18.6953 22.9928 18.6498 23.2227 18.5612 23.4373C18.4725 23.6519 18.3425 23.847 18.1784 24.0113C18.0201 24.1697 17.8314 24.2945 17.6237 24.3784C17.416 24.4622 17.1936 24.5034 16.9696 24.4993C16.7457 24.4953 16.5249 24.4461 16.3203 24.3548C16.1158 24.2635 15.9318 24.1319 15.7792 23.9679L11.1667 19.4996C9.91675 18.2496 8.66675 16.8329 8.66675 14.9163C8.66693 13.989 8.94837 13.0836 9.47388 12.3196C9.99939 11.5557 10.7443 10.9691 11.6101 10.6373C12.476 10.3055 13.4222 10.2442 14.3236 10.4613C15.2251 10.6785 16.0395 11.164 16.6592 11.8538C16.7519 11.9399 16.8738 11.9877 17.0002 11.9875C17.1267 11.9874 17.2485 11.9393 17.3409 11.8529M23.1784 19.0113C23.4909 18.6987 23.6664 18.2749 23.6664 17.8329C23.6664 17.391 23.4909 16.9671 23.1784 16.6546L21.6109 15.0863C21.4244 14.8997 21.203 14.7517 20.9593 14.6507C20.7155 14.5497 20.4543 14.4977 20.1905 14.4977C19.9267 14.4977 19.6655 14.5497 19.4217 14.6507C19.178 14.7517 18.9566 14.8997 18.7701 15.0863L17.3451 16.5113C17.0325 16.8237 16.6087 16.9992 16.1667 16.9992C15.7248 16.9992 15.301 16.8237 14.9884 16.5113C14.676 16.1987 14.5004 15.7749 14.5004 15.3329C14.5004 14.891 14.676 14.4671 14.9884 14.1546L17.3409 11.8529" stroke="white" stroke-width="2" stroke-linecap="round" stroke-linejoin="round"/>
</svg>
