<svg width="52" height="60" viewBox="0 0 52 60" fill="none" xmlns="http://www.w3.org/2000/svg">
<g filter="url(#filter0_f_1830_34)">
<ellipse cx="26" cy="53.5" rx="7" ry="2.5" fill="black" fill-opacity="0.2"/>
</g>
<g filter="url(#filter1_d_1830_34)">
<path fill-rule="evenodd" clip-rule="evenodd" d="M26 4C37.598 4 47 13.402 47 25C47 33.8926 41.4727 41.4942 33.6663 44.5567L27.1961 53.4007C27.0612 53.5858 26.8821 53.7369 26.6739 53.8412C26.4657 53.9455 26.2346 54 26 54C25.7654 54 25.5343 53.9455 25.3261 53.8412C25.1179 53.7369 24.9388 53.5858 24.8039 53.4007L18.3337 44.5567C10.5273 41.4941 5 33.8926 5 25C5 13.402 14.402 4 26 4Z" fill="white"/>
</g>
<path d="M43 25C43 15.6112 35.3888 8 26 8C16.6112 8 9 15.6112 9 25C9 34.3888 16.6112 42 26 42C35.3888 42 43 34.3888 43 25Z" fill="#6BBF6D"/>
<path d="M24.7084 30.833C23.3182 30.8372 21.9773 30.3188 20.9515 29.3806C19.9257 28.4424 19.29 27.153 19.1704 25.768C19.0509 24.383 19.4562 23.0037 20.306 21.9036C21.1558 20.8035 22.3881 20.0629 23.7584 19.8288C28.2709 18.958 29.4584 18.5463 31.0417 16.583C31.8334 18.1663 32.625 19.8922 32.625 22.9163C32.625 27.2705 28.8409 30.833 24.7084 30.833Z" stroke="white" stroke-width="2" stroke-linecap="round" stroke-linejoin="round"/>
<path d="M17.5833 31.625C17.5833 29.25 19.0478 27.3817 21.6049 26.875C23.5208 26.495 25.4999 25.2917 26.2916 24.5" stroke="white" stroke-width="2" stroke-linecap="round" stroke-linejoin="round"/>
<defs>
<filter id="filter0_f_1830_34" x="17" y="49" width="18" height="9" filterUnits="userSpaceOnUse" color-interpolation-filters="sRGB">
<feFlood flood-opacity="0" result="BackgroundImageFix"/>
<feBlend mode="normal" in="SourceGraphic" in2="BackgroundImageFix" result="shape"/>
<feGaussianBlur stdDeviation="1" result="effect1_foregroundBlur_1830_34"/>
</filter>
<filter id="filter1_d_1830_34" x="0" y="0" width="52" height="60" filterUnits="userSpaceOnUse" color-interpolation-filters="sRGB">
<feFlood flood-opacity="0" result="BackgroundImageFix"/>
<feColorMatrix in="SourceAlpha" type="matrix" values="0 0 0 0 0 0 0 0 0 0 0 0 0 0 0 0 0 0 127 0" result="hardAlpha"/>
<feOffset dy="1"/>
<feGaussianBlur stdDeviation="2.5"/>
<feComposite in2="hardAlpha" operator="out"/>
<feColorMatrix type="matrix" values="0 0 0 0 0 0 0 0 0 0 0 0 0 0 0 0 0 0 0.1 0"/>
<feBlend mode="normal" in2="BackgroundImageFix" result="effect1_dropShadow_1830_34"/>
<feBlend mode="normal" in="SourceGraphic" in2="effect1_dropShadow_1830_34" result="shape"/>
</filter>
</defs>
</svg>
