<svg width="52" height="60" viewBox="0 0 52 60" fill="none" xmlns="http://www.w3.org/2000/svg">
<g filter="url(#filter0_f_1830_139)">
<ellipse cx="26" cy="53.5" rx="7" ry="2.5" fill="black" fill-opacity="0.2"/>
</g>
<g filter="url(#filter1_d_1830_139)">
<path fill-rule="evenodd" clip-rule="evenodd" d="M26 4C37.598 4 47 13.402 47 25C47 33.8926 41.4727 41.4942 33.6663 44.5567L27.1961 53.4007C27.0612 53.5858 26.8821 53.7369 26.6739 53.8412C26.4657 53.9455 26.2346 54 26 54C25.7654 54 25.5343 53.9455 25.3261 53.8412C25.1179 53.7369 24.9388 53.5858 24.8039 53.4007L18.3337 44.5567C10.5273 41.4941 5 33.8926 5 25C5 13.402 14.402 4 26 4Z" fill="white"/>
</g>
<path d="M43 25C43 15.6112 35.3888 8 26 8C16.6112 8 9 15.6112 9 25C9 34.3888 16.6112 42 26 42C35.3888 42 43 34.3888 43 25Z" fill="#E8593C"/>
<path d="M32.1784 27.0113C33.5001 25.6896 34.3334 24.5829 34.3334 22.9163C34.3334 21.9889 34.0521 21.0834 33.5266 20.3193C33.0012 19.5552 32.2563 18.9685 31.3904 18.6366C30.5245 18.3047 29.5783 18.2433 28.6767 18.4605C27.7752 18.6776 26.9607 19.1632 26.3409 19.8529M32.1784 27.0113C32.0141 27.1756 31.8189 27.306 31.6042 27.395C31.3894 27.484 31.1592 27.5298 30.9267 27.5298C30.6943 27.5298 30.4641 27.484 30.2493 27.395C30.0346 27.306 29.8394 27.1756 29.6751 27.0113C29.853 27.1722 29.9964 27.3676 30.0965 27.5856C30.1966 27.8037 30.2513 28.0398 30.2574 28.2797C30.2634 28.5195 30.2206 28.7581 30.1316 28.9809C30.0426 29.2037 29.9092 29.406 29.7395 29.5757C29.5699 29.7453 29.3675 29.8787 29.1447 29.9678C28.9219 30.0568 28.6833 30.0996 28.4435 30.0935C28.2036 30.0875 27.9675 30.0328 27.7495 29.9327C27.5314 29.8326 27.336 29.6892 27.1751 29.5113C27.3396 29.6751 27.4702 29.8698 27.5594 30.0842C27.6486 30.2985 27.6947 30.5284 27.695 30.7606C27.6953 30.9928 27.6498 31.2227 27.5612 31.4373C27.4725 31.6519 27.3425 31.847 27.1784 32.0113C27.0201 32.1697 26.8314 32.2945 26.6237 32.3784C26.416 32.4622 26.1936 32.5034 25.9696 32.4993C25.7457 32.4953 25.5249 32.4461 25.3203 32.3548C25.1158 32.2635 24.9318 32.1319 24.7792 31.9679L20.1667 27.4996C18.9167 26.2496 17.6667 24.8329 17.6667 22.9163C17.6669 21.989 17.9484 21.0836 18.4739 20.3196C18.9994 19.5557 19.7443 18.9691 20.6101 18.6373C21.476 18.3055 22.4222 18.2442 23.3236 18.4613C24.2251 18.6785 25.0395 19.164 25.6592 19.8538C25.7519 19.9399 25.8738 19.9877 26.0002 19.9875C26.1267 19.9874 26.2485 19.9393 26.3409 19.8529M32.1784 27.0113C32.4909 26.6987 32.6664 26.2749 32.6664 25.8329C32.6664 25.391 32.4909 24.9671 32.1784 24.6546L30.6109 23.0863C30.4244 22.8997 30.203 22.7517 29.9593 22.6507C29.7155 22.5497 29.4543 22.4977 29.1905 22.4977C28.9267 22.4977 28.6655 22.5497 28.4217 22.6507C28.178 22.7517 27.9566 22.8997 27.7701 23.0863L26.3451 24.5113C26.0325 24.8237 25.6087 24.9992 25.1667 24.9992C24.7248 24.9992 24.301 24.8237 23.9884 24.5113C23.676 24.1987 23.5004 23.7749 23.5004 23.3329C23.5004 22.891 23.676 22.4671 23.9884 22.1546L26.3409 19.8529" stroke="white" stroke-width="2" stroke-linecap="round" stroke-linejoin="round"/>
<defs>
<filter id="filter0_f_1830_139" x="17" y="49" width="18" height="9" filterUnits="userSpaceOnUse" color-interpolation-filters="sRGB">
<feFlood flood-opacity="0" result="BackgroundImageFix"/>
<feBlend mode="normal" in="SourceGraphic" in2="BackgroundImageFix" result="shape"/>
<feGaussianBlur stdDeviation="1" result="effect1_foregroundBlur_1830_139"/>
</filter>
<filter id="filter1_d_1830_139" x="0" y="0" width="52" height="60" filterUnits="userSpaceOnUse" color-interpolation-filters="sRGB">
<feFlood flood-opacity="0" result="BackgroundImageFix"/>
<feColorMatrix in="SourceAlpha" type="matrix" values="0 0 0 0 0 0 0 0 0 0 0 0 0 0 0 0 0 0 127 0" result="hardAlpha"/>
<feOffset dy="1"/>
<feGaussianBlur stdDeviation="2.5"/>
<feComposite in2="hardAlpha" operator="out"/>
<feColorMatrix type="matrix" values="0 0 0 0 0 0 0 0 0 0 0 0 0 0 0 0 0 0 0.1 0"/>
<feBlend mode="normal" in2="BackgroundImageFix" result="effect1_dropShadow_1830_139"/>
<feBlend mode="normal" in="SourceGraphic" in2="effect1_dropShadow_1830_139" result="shape"/>
</filter>
</defs>
</svg>
