<svg width="52" height="60" viewBox="0 0 52 60" fill="none" xmlns="http://www.w3.org/2000/svg">
<g filter="url(#filter0_f_1830_20)">
<ellipse cx="26" cy="53.5" rx="7" ry="2.5" fill="black" fill-opacity="0.2"/>
</g>
<g filter="url(#filter1_d_1830_20)">
<path fill-rule="evenodd" clip-rule="evenodd" d="M26 4C37.598 4 47 13.402 47 25C47 33.8926 41.4727 41.4942 33.6663 44.5567L27.1961 53.4007C27.0612 53.5858 26.8821 53.7369 26.6739 53.8412C26.4657 53.9455 26.2346 54 26 54C25.7654 54 25.5343 53.9455 25.3261 53.8412C25.1179 53.7369 24.9388 53.5858 24.8039 53.4007L18.3337 44.5567C10.5273 41.4941 5 33.8926 5 25C5 13.402 14.402 4 26 4Z" fill="white"/>
</g>
<path d="M43 25C43 15.6112 35.3888 8 26 8C16.6112 8 9 15.6112 9 25C9 34.3888 16.6112 42 26 42C35.3888 42 43 34.3888 43 25Z" fill="#2E9E6B"/>
<g clip-path="url(#clip0_1830_20)">
<path d="M22 32.5C22.4142 32.5 22.75 32.1642 22.75 31.75C22.75 31.3358 22.4142 31 22 31C21.5858 31 21.25 31.3358 21.25 31.75C21.25 32.1642 21.5858 32.5 22 32.5Z" stroke="white" stroke-width="2" stroke-linecap="round" stroke-linejoin="round"/>
<path d="M30.25 32.5C30.6642 32.5 31 32.1642 31 31.75C31 31.3358 30.6642 31 30.25 31C29.8358 31 29.5 31.3358 29.5 31.75C29.5 32.1642 29.8358 32.5 30.25 32.5Z" stroke="white" stroke-width="2" stroke-linecap="round" stroke-linejoin="round"/>
<path d="M17.5376 17.5371H19.0376L21.0326 26.8521C21.1058 27.1933 21.2956 27.4982 21.5694 27.7145C21.8432 27.9308 22.1838 28.0449 22.5326 28.0371H29.8676C30.209 28.0366 30.54 27.9196 30.8059 27.7055C31.0718 27.4914 31.2567 27.193 31.3301 26.8596L32.5676 21.2871H19.8401" stroke="white" stroke-width="2" stroke-linecap="round" stroke-linejoin="round"/>
</g>
<defs>
<filter id="filter0_f_1830_20" x="17" y="49" width="18" height="9" filterUnits="userSpaceOnUse" color-interpolation-filters="sRGB">
<feFlood flood-opacity="0" result="BackgroundImageFix"/>
<feBlend mode="normal" in="SourceGraphic" in2="BackgroundImageFix" result="shape"/>
<feGaussianBlur stdDeviation="1" result="effect1_foregroundBlur_1830_20"/>
</filter>
<filter id="filter1_d_1830_20" x="0" y="0" width="52" height="60" filterUnits="userSpaceOnUse" color-interpolation-filters="sRGB">
<feFlood flood-opacity="0" result="BackgroundImageFix"/>
<feColorMatrix in="SourceAlpha" type="matrix" values="0 0 0 0 0 0 0 0 0 0 0 0 0 0 0 0 0 0 127 0" result="hardAlpha"/>
<feOffset dy="1"/>
<feGaussianBlur stdDeviation="2.5"/>
<feComposite in2="hardAlpha" operator="out"/>
<feColorMatrix type="matrix" values="0 0 0 0 0 0 0 0 0 0 0 0 0 0 0 0 0 0 0.1 0"/>
<feBlend mode="normal" in2="BackgroundImageFix" result="effect1_dropShadow_1830_20"/>
<feBlend mode="normal" in="SourceGraphic" in2="effect1_dropShadow_1830_20" result="shape"/>
</filter>
<clipPath id="clip0_1830_20">
<rect width="18" height="18" fill="white" transform="translate(16 16)"/>
</clipPath>
</defs>
</svg>
